<svg width="70" height="70" viewBox="0 0 70 70" fill="none" xmlns="http://www.w3.org/2000/svg">
<g clip-path="url(#clip0_24060_69570)">
<path d="M69.9976 70.001V0.000976562L-0.00244141 70.001H69.9976Z" fill="#442AE0"/>
<path d="M57.932 59.2438L54.9459 56.2831L52.6999 58.5291L51.9852 57.8145C51.5939 57.4231 51.3982 56.9382 51.3982 56.3597C51.3982 55.7812 51.5939 55.2962 51.9852 54.9049L56.2986 50.5916C56.6899 50.2002 57.1749 50.0045 57.7534 50.0045C58.3319 50.0045 58.8168 50.2002 59.2082 50.5916L59.9228 51.3062L57.6768 53.5522L60.6374 56.5384C60.8416 56.7425 60.9437 56.9807 60.9437 57.253C60.9437 57.5252 60.8416 57.7634 60.6374 57.9676L59.3613 59.2438C59.1571 59.4479 58.9189 59.55 58.6467 59.55C58.3744 59.55 58.1362 59.4479 57.932 59.2438ZM60.9437 43.2155L49.3564 54.8028L49.484 54.9049C49.8753 55.2962 50.071 55.7812 50.071 56.3597C50.071 56.9382 49.8753 57.4231 49.484 57.8145L48.7694 58.5291L46.5234 56.2831L43.5372 59.2438C43.333 59.4479 43.0948 59.55 42.8226 59.55C42.5503 59.55 42.3121 59.4479 42.1079 59.2438L40.8318 57.9676C40.6276 57.7634 40.5255 57.5252 40.5255 57.253C40.5255 56.9807 40.6276 56.7425 40.8318 56.5384L43.7924 53.5522L41.5464 51.3062L42.2611 50.5916C42.6524 50.2002 43.1373 50.0045 43.7159 50.0045C44.2944 50.0045 44.7793 50.2002 45.1707 50.5916L45.2727 50.7192L56.8601 39.1318H60.9437V43.2155ZM45.579 48.269L40.5255 43.2155V39.1318H44.6092L49.6627 44.1853L48.2079 45.6146L43.7669 41.1737H42.5673V42.3732L47.0083 46.8142L45.579 48.269ZM47.9271 53.348L58.9019 42.3732V41.1737H57.7023L46.7275 52.1484L47.9271 53.348Z" fill="#CCC4FF"/>
</g>
<defs>
<clipPath id="clip0_24060_69570">
<rect width="70" height="70" fill="white"/>
</clipPath>
</defs>
</svg>
