<svg width="36" height="36" viewBox="0 0 36 36" fill="none" xmlns="http://www.w3.org/2000/svg">
<g clip-path="url(#clip0_28384_36922)">
<path d="M28.9038 8.28125C26.5778 8.44117 10.2361 9.99726 9.09373 21.2012C8.95492 22.3988 8.87631 23.6019 8.82465 24.8058L16.8598 16.7787C17.1406 16.4979 17.5965 16.4979 17.8773 16.7787C18.1581 17.0594 18.1581 17.5145 17.8773 17.7953L6.22008 29.4408C5.79871 29.8617 5.79871 30.5445 6.22008 30.9654C6.64145 31.3864 7.32471 31.3864 7.74652 30.9654L10.3129 28.4018C12.2037 28.3955 14.0931 28.2881 15.9713 28.0711C18.3737 27.8268 20.3296 26.8821 21.927 25.5312H17.3921L23.9862 23.3355C24.4916 22.6666 24.9462 21.9559 25.3541 21.2188H21.7091L26.4951 18.8285C28.3778 14.2496 28.8225 9.4609 28.9038 8.28125Z" fill="#C7C7D0"/>
</g>
<defs>
<clipPath id="clip0_28384_36922">
<rect width="23" height="23" fill="white" transform="translate(5.90381 8.28125)"/>
</clipPath>
</defs>
</svg>
