<svg width="20" height="20" viewBox="0 0 20 20" fill="none" xmlns="http://www.w3.org/2000/svg">
<g clip-path="url(#clip0_24040_90835)">
<path d="M7.37995 12.588C7.27995 12.488 7.16884 12.4102 7.0355 12.3547C6.90217 12.2991 6.76884 12.2769 6.62439 12.2769H6.0355C5.42439 12.2769 4.84661 12.0436 4.41328 11.5991C3.97995 11.1658 3.7355 10.588 3.7355 9.97691C3.7355 9.3658 3.97995 8.77691 4.41328 8.35469C4.84661 7.92135 5.42439 7.67691 6.0355 7.67691H8.42439C9.01328 7.67691 9.56884 7.89913 10.0022 8.29913C10.4355 8.69913 10.6911 9.24358 10.7244 9.83246C10.7244 9.97691 10.7688 10.1102 10.8244 10.2325C10.8799 10.3547 10.9688 10.4658 11.0799 10.5658C11.1911 10.6547 11.3133 10.7325 11.4355 10.7769C11.5688 10.8214 11.7133 10.8436 11.8466 10.8325C11.9911 10.8325 12.1244 10.788 12.2466 10.7325C12.3688 10.6769 12.4799 10.588 12.5799 10.4769C12.6799 10.3658 12.7466 10.2547 12.7911 10.1214C12.8355 9.98802 12.8577 9.84358 12.8466 9.71024C12.7799 8.57691 12.2911 7.53247 11.4577 6.75469C10.6355 5.98802 9.55772 5.55469 8.4355 5.55469H6.04661C4.86884 5.55469 3.75773 6.01024 2.92439 6.85469C2.06884 7.68802 1.61328 8.79913 1.61328 9.97691C1.61328 11.1547 2.06884 12.2658 2.91328 13.0991C3.74661 13.9325 4.85773 14.3991 6.0355 14.3991H6.62439C6.76884 14.3991 6.90217 14.3769 7.0355 14.3214C7.16884 14.2658 7.27995 14.188 7.37995 14.088C7.47995 13.988 7.55773 13.8658 7.61328 13.7436C7.66884 13.6102 7.69106 13.4769 7.69106 13.3325C7.69106 13.188 7.66884 13.0547 7.61328 12.9214C7.55773 12.788 7.47995 12.6769 7.37995 12.5769V12.588Z" fill="#21A6FF"/>
<path d="M17.0768 6.85469C16.2435 6.02135 15.1323 5.55469 13.9546 5.55469H13.3657C13.0768 5.55469 12.8101 5.6658 12.6101 5.8658C12.4101 6.0658 12.299 6.33247 12.299 6.62135C12.299 6.91024 12.4101 7.17691 12.6101 7.37691C12.8101 7.57691 13.0768 7.68802 13.3657 7.68802H13.9546C14.5546 7.68802 15.1546 7.93247 15.5768 8.3658C16.0101 8.79913 16.2546 9.37691 16.2546 9.98802C16.2546 10.5991 16.0212 11.1769 15.5768 11.6102C15.1323 12.0436 14.5546 12.288 13.9546 12.288H11.5657C10.9768 12.288 10.4212 12.0658 9.9879 11.6658C9.55457 11.2658 9.31012 10.7102 9.26568 10.1325C9.26568 9.98802 9.22123 9.85469 9.16568 9.73247C9.09901 9.61024 9.02123 9.49913 8.91012 9.39913C8.81012 9.31024 8.6879 9.23247 8.55457 9.18802C8.42123 9.14358 8.2879 9.12135 8.14346 9.13247C7.99901 9.13247 7.86568 9.17691 7.74346 9.23247C7.62123 9.29913 7.49901 9.37691 7.41012 9.48802C7.32123 9.58802 7.24346 9.71024 7.19901 9.84358C7.15457 9.97691 7.13235 10.1102 7.14346 10.2547C7.21012 11.388 7.69901 12.4325 8.52123 13.2102C9.34346 13.988 10.4212 14.4102 11.5546 14.4102H13.9435C15.1212 14.4102 16.2323 13.9436 17.0768 13.1102C17.8768 12.3102 18.3435 11.2102 18.3768 10.0769V9.98802C18.3768 8.81024 17.9212 7.69913 17.0768 6.8658V6.85469Z" fill="#21A6FF"/>
</g>
<defs>
<clipPath id="clip0_24040_90835">
<rect width="16.7667" height="8.84444" fill="white" transform="translate(1.61328 5.55469)"/>
</clipPath>
</defs>
</svg>
