<svg width="36" height="36" viewBox="0 0 36 36" fill="none" xmlns="http://www.w3.org/2000/svg">
<path d="M17.0654 11.6646C18.2156 11.6647 19.3203 11.8516 20.3516 12.191C19.0412 13.3952 17.5379 14.0323 16.5908 14.2466H22.8506V13.4058C22.8519 13.4067 22.8531 13.4078 22.8545 13.4088V14.2466H23.9434L23.9443 14.2476H22.8545V20.8931C23.2213 18.7269 24.3337 17.1691 25.5781 16.1021C26.6344 17.6521 27.2509 19.5063 27.251 21.5005C27.251 26.9329 22.6909 31.3373 17.0654 31.3375C11.4397 31.3375 6.87891 26.933 6.87891 21.5005C6.87905 16.0682 11.4398 11.6646 17.0654 11.6646ZM16.5908 14.2476C18.3704 14.6504 22.114 16.5435 22.8506 20.8931V14.2476H16.5908ZM29.1143 14.2476C28.2209 14.4498 26.8324 15.0267 25.5781 16.1021C25.1135 15.4204 24.5651 14.7969 23.9443 14.2476H29.1143ZM22.8545 7.60114C23.5912 11.9504 27.3347 13.8439 29.1143 14.2466H23.9434C23.6012 13.944 23.2371 13.6645 22.8545 13.4088V7.60114ZM22.8506 13.4058C22.0868 12.8958 21.2472 12.4857 20.3516 12.191C21.5033 11.1325 22.506 9.63566 22.8506 7.60114V13.4058Z" fill="#C7C7D0"/>
</svg>
