<svg width="36" height="36" viewBox="0 0 36 36" fill="none" xmlns="http://www.w3.org/2000/svg">
<path d="M13.4217 10.4534L14.9824 23.8085H18.2274V5.26562L13.7641 9.50733C13.5075 9.75123 13.3806 10.1017 13.4217 10.4534Z" fill="#C7C7D0"/>
<path d="M23.0338 10.4534L21.4732 23.8085H18.2282V5.26562L22.6914 9.50733C22.9481 9.75123 23.0749 10.1017 23.0338 10.4534Z" fill="#C7C7D0"/>
<path d="M25.2117 25.5972C25.3067 25.927 25.0592 26.2559 24.7161 26.2559H21.2561C20.9713 26.2559 20.7404 26.4868 20.7404 26.7716V31.4383C20.7404 31.7232 20.5094 31.9541 20.2246 31.9541H15.7825C15.4977 31.9541 15.2667 31.7232 15.2667 31.4383V26.7716C15.2667 26.4868 15.0358 26.2559 14.7509 26.2559H11.292C10.9488 26.2559 10.7013 25.927 10.7964 25.5972L11.5938 22.83C11.6575 22.6091 11.8596 22.457 12.0894 22.457H23.9186C24.1485 22.457 24.3506 22.6091 24.4142 22.83L25.2117 25.5972Z" fill="#C7C7D0"/>
</svg>
