<svg width="70" height="70" viewBox="0 0 70 70" fill="none" xmlns="http://www.w3.org/2000/svg">
<g clip-path="url(#clip0_24060_69564)">
<path d="M69.9976 70.001V0.000976562L-0.00244141 70.001H69.9976Z" fill="#DDF742"/>
<path d="M46.4146 50.6167C46.4146 50.6167 47.8844 52.2965 50.3342 52.2965C52.7839 52.2965 54.2538 50.6167 54.2538 50.6167M53.4139 45.0172H53.4251M47.2545 45.0172H47.2657M50.3342 57.336C55.5914 57.336 59.8533 53.0742 59.8533 47.8169C59.8533 42.5597 55.5914 38.2979 50.3342 38.2979C45.0769 38.2979 40.8151 42.5597 40.8151 47.8169C40.8151 48.8808 40.9896 49.904 41.3116 50.8592C41.4328 51.2187 41.4934 51.3985 41.5043 51.5366C41.5151 51.6729 41.5069 51.7686 41.4732 51.9011C41.439 52.0354 41.3636 52.175 41.2128 52.4542L39.381 55.8447C39.1197 56.3283 38.9891 56.5701 39.0183 56.7568C39.0438 56.9193 39.1395 57.0625 39.2799 57.1481C39.4412 57.2465 39.7146 57.2182 40.2614 57.1617L45.9963 56.5689C46.17 56.551 46.2569 56.542 46.336 56.545C46.4139 56.548 46.4688 56.5553 46.5447 56.5728C46.6219 56.5906 46.719 56.628 46.9131 56.7028C47.9748 57.1118 49.1283 57.336 50.3342 57.336ZM53.9738 45.0172C53.9738 45.3265 53.7231 45.5771 53.4139 45.5771C53.1046 45.5771 52.8539 45.3265 52.8539 45.0172C52.8539 44.708 53.1046 44.4573 53.4139 44.4573C53.7231 44.4573 53.9738 44.708 53.9738 45.0172ZM47.8144 45.0172C47.8144 45.3265 47.5637 45.5771 47.2545 45.5771C46.9452 45.5771 46.6945 45.3265 46.6945 45.0172C46.6945 44.708 46.9452 44.4573 47.2545 44.4573C47.5637 44.4573 47.8144 44.708 47.8144 45.0172Z" stroke="#758321" stroke-width="1.95653" stroke-linecap="round" stroke-linejoin="round"/>
</g>
<defs>
<clipPath id="clip0_24060_69564">
<rect width="70" height="70" fill="white"/>
</clipPath>
</defs>
</svg>
