<svg width="24" height="24" viewBox="0 0 24 24" fill="none" xmlns="http://www.w3.org/2000/svg">
<path d="M12 0C5.37258 0 0 5.37258 0 12C0 18.6274 5.37258 24 12 24C18.6274 24 24 18.6274 24 12C24 5.37258 18.6274 0 12 0Z" fill="#6A5DFD"/>
<path fill-rule="evenodd" clip-rule="evenodd" d="M18.4734 7.26509C18.6642 7.45593 18.7713 7.71473 18.7713 7.98458C18.7713 8.25442 18.6642 8.51322 18.4734 8.70406L10.8457 16.3317C10.7449 16.4326 10.6252 16.5125 10.4935 16.5671C10.3618 16.6217 10.2206 16.6498 10.078 16.6498C9.93548 16.6498 9.7943 16.6217 9.66259 16.5671C9.53087 16.5125 9.4112 16.4326 9.3104 16.3317L5.52064 12.5427C5.42344 12.4488 5.34592 12.3365 5.29258 12.2123C5.23925 12.0882 5.21117 11.9546 5.21 11.8195C5.20883 11.6844 5.23457 11.5504 5.28574 11.4253C5.33691 11.3003 5.41248 11.1866 5.50803 11.0911C5.60358 10.9955 5.7172 10.92 5.84227 10.8688C5.96733 10.8176 6.10134 10.7919 6.23646 10.7931C6.37159 10.7942 6.50512 10.8223 6.62928 10.8756C6.75344 10.929 6.86573 11.0065 6.95961 11.1037L10.0777 14.2218L17.0337 7.26509C17.1282 7.17053 17.2405 7.09551 17.364 7.04432C17.4875 6.99314 17.6199 6.9668 17.7536 6.9668C17.8873 6.9668 18.0196 6.99314 18.1432 7.04432C18.2667 7.09551 18.3789 7.17053 18.4734 7.26509Z" fill="#EFF0FF"/>
</svg>
