<svg width="22" height="22" viewBox="0 0 22 22" fill="none" xmlns="http://www.w3.org/2000/svg">
<path fill-rule="evenodd" clip-rule="evenodd" d="M21 3.9C21 2.85066 20.1493 2 19.1 2H3.9C2.85066 2 2 2.85066 2 3.9V14.1C2 15.1493 2.85066 16 3.9 16H7.82357L10.8006 19.239C11.1769 19.6485 11.8231 19.6485 12.1994 19.239L15.1764 16H19.1C20.1493 16 21 15.1493 21 14.1V3.9ZM6 7C6 6.44772 6.44772 6 7 6H16C16.5523 6 17 6.44772 17 7C17 7.55228 16.5523 8 16 8H7C6.44771 8 6 7.55228 6 7ZM6 11C6 10.4477 6.44772 10 7 10H16C16.5523 10 17 10.4477 17 11C17 11.5523 16.5523 12 16 12H7C6.44771 12 6 11.5523 6 11Z" fill="#949399"/>
</svg>
