<svg width="36" height="36" viewBox="0 0 36 36" fill="none" xmlns="http://www.w3.org/2000/svg">
<path fill-rule="evenodd" clip-rule="evenodd" d="M27.0517 11.6881C27.0517 13.2951 26.0358 14.6648 24.6112 15.1899L27.303 16.7852V18.5178H25.2405C26.0375 20.6587 26.7838 22.2927 27.8243 23.7099C29.3965 25.8513 30.8178 28.2272 30.8178 30.8839C24.9656 32.1156 21.6752 32.0762 15.823 30.8839C15.823 28.2272 17.2443 25.8513 18.8165 23.7099C19.857 22.2927 20.6033 20.6587 21.4003 18.5178H19.3366V16.7852L22.0291 15.1895C20.6051 14.6641 19.5897 13.2947 19.5897 11.6881C19.5897 9.62748 21.2601 7.95703 23.3207 7.95703C25.3813 7.95703 27.0517 9.62748 27.0517 11.6881Z" fill="#C7C7D0"/>
<path d="M12.6736 7.95312C14.734 7.95318 16.4039 9.6242 16.4041 11.6846C16.404 13.2915 15.3882 14.6604 13.9636 15.1855L16.657 16.7832V18.5156H14.6013C15.3981 20.6556 16.1442 22.2893 17.1843 23.7061C17.2616 23.8114 17.3384 23.918 17.4148 24.0244C16.0623 25.9957 14.863 28.2903 14.863 30.8809V31.6543L15.0222 31.6865C11.8661 31.9562 9.09744 31.6775 5.18237 30.8799C5.18261 28.2236 6.60443 25.8473 8.17651 23.7061C9.21659 22.2893 9.96183 20.6555 10.7585 18.5156H8.69116V16.7832L11.3835 15.1865C9.95886 14.6614 8.94218 13.2916 8.94214 11.6846C8.94233 9.62425 10.6133 7.95326 12.6736 7.95312ZM17.9939 24.8604C19.2127 26.6937 20.1773 28.6915 20.1775 30.8799C19.4206 31.0392 18.7065 31.1769 18.0242 31.2939C17.3237 31.1763 16.5896 31.0396 15.8103 30.8809C15.8103 28.6921 16.7748 26.6939 17.9939 24.8604Z" fill="#C7C7D0"/>
</svg>
