<svg width="20" height="20" viewBox="0 0 20 20" fill="none" xmlns="http://www.w3.org/2000/svg">
<mask id="path-1-outside-1_2061_4480" maskUnits="userSpaceOnUse" x="0.939453" y="0.939453" width="18" height="18" fill="black">
<rect fill="white" x="0.939453" y="0.939453" width="18" height="18"/>
<path fill-rule="evenodd" clip-rule="evenodd" d="M18.1764 9.688L18.1882 9.84717L18.1921 10.0034C18.1919 10.1886 18.1748 10.3732 18.1413 10.5551L18.0997 10.7464L16.8507 15.7424C16.523 17.0532 15.3773 17.9877 14.0402 18.0566L13.878 18.0607H8.33339C7.60029 18.0607 6.99915 17.4946 6.94365 16.7758L6.93945 16.6617V9.56017C6.93945 9.27374 6.9947 8.99057 7.10156 8.72601L7.17695 8.55939L8.18453 6.54479L8.21861 6.46859L7.96966 6.35724L8.22727 6.44677L8.25106 6.37911L9.10677 3.52672C9.37553 2.63086 10.1729 2.00344 11.0962 1.94407L11.2444 1.93945H11.6667C12.695 1.93945 13.5286 2.77305 13.5286 3.80135C13.5286 3.90105 13.5206 4.00049 13.5047 4.09874L13.4717 4.25834L12.8016 6.93945H15.1315C16.7164 6.93945 18.0202 8.14439 18.1764 9.688ZM4.43945 16.9395V9.72733H3.06067V16.9395H4.43945ZM11.7756 3.06856L11.6777 3.06067H11.2401C10.796 3.06067 10.3998 3.32547 10.226 3.72521L10.2227 3.73265L10.183 3.84115L9.32836 6.69003C9.30422 6.7705 9.27555 6.84951 9.24251 6.92667L9.18539 7.04961L8.17744 9.06553C8.11984 9.18072 8.08296 9.30477 8.06811 9.43204L8.0672 9.43991L8.06067 9.55225V16.9395H13.8815C14.7191 16.9395 15.4556 16.403 15.7194 15.62L15.7603 15.481L17.0129 10.4704C17.0514 10.3166 17.0708 10.1586 17.0708 10.0001C17.0708 8.97753 16.2797 8.13985 15.2759 8.06579L15.1415 8.06067H12.0834C11.7429 8.06067 11.4864 7.76131 11.5266 7.43378L11.5413 7.3568L12.3853 3.981C12.4 3.92224 12.4074 3.86191 12.4074 3.80135C12.4074 3.43293 12.1387 3.12779 11.7865 3.07035L11.7756 3.06856ZM4.16673 8.60612C4.89983 8.60612 5.50097 9.17223 5.55647 9.89094L5.56067 10.0051V16.6667C5.56067 17.3998 4.99455 18.001 4.27583 18.0565L4.16176 18.0607H3.33339C2.60029 18.0607 1.99915 17.4946 1.94365 16.7758L1.93945 16.6617V10.0001C1.93945 9.26695 2.50556 8.66582 3.22428 8.61031L3.3384 8.60612H4.16673Z"/>
</mask>
<path fill-rule="evenodd" clip-rule="evenodd" d="M18.1764 9.688L18.1882 9.84717L18.1921 10.0034C18.1919 10.1886 18.1748 10.3732 18.1413 10.5551L18.0997 10.7464L16.8507 15.7424C16.523 17.0532 15.3773 17.9877 14.0402 18.0566L13.878 18.0607H8.33339C7.60029 18.0607 6.99915 17.4946 6.94365 16.7758L6.93945 16.6617V9.56017C6.93945 9.27374 6.9947 8.99057 7.10156 8.72601L7.17695 8.55939L8.18453 6.54479L8.21861 6.46859L7.96966 6.35724L8.22727 6.44677L8.25106 6.37911L9.10677 3.52672C9.37553 2.63086 10.1729 2.00344 11.0962 1.94407L11.2444 1.93945H11.6667C12.695 1.93945 13.5286 2.77305 13.5286 3.80135C13.5286 3.90105 13.5206 4.00049 13.5047 4.09874L13.4717 4.25834L12.8016 6.93945H15.1315C16.7164 6.93945 18.0202 8.14439 18.1764 9.688ZM4.43945 16.9395V9.72733H3.06067V16.9395H4.43945ZM11.7756 3.06856L11.6777 3.06067H11.2401C10.796 3.06067 10.3998 3.32547 10.226 3.72521L10.2227 3.73265L10.183 3.84115L9.32836 6.69003C9.30422 6.7705 9.27555 6.84951 9.24251 6.92667L9.18539 7.04961L8.17744 9.06553C8.11984 9.18072 8.08296 9.30477 8.06811 9.43204L8.0672 9.43991L8.06067 9.55225V16.9395H13.8815C14.7191 16.9395 15.4556 16.403 15.7194 15.62L15.7603 15.481L17.0129 10.4704C17.0514 10.3166 17.0708 10.1586 17.0708 10.0001C17.0708 8.97753 16.2797 8.13985 15.2759 8.06579L15.1415 8.06067H12.0834C11.7429 8.06067 11.4864 7.76131 11.5266 7.43378L11.5413 7.3568L12.3853 3.981C12.4 3.92224 12.4074 3.86191 12.4074 3.80135C12.4074 3.43293 12.1387 3.12779 11.7865 3.07035L11.7756 3.06856ZM4.16673 8.60612C4.89983 8.60612 5.50097 9.17223 5.55647 9.89094L5.56067 10.0051V16.6667C5.56067 17.3998 4.99455 18.001 4.27583 18.0565L4.16176 18.0607H3.33339C2.60029 18.0607 1.99915 17.4946 1.94365 16.7758L1.93945 16.6617V10.0001C1.93945 9.26695 2.50556 8.66582 3.22428 8.61031L3.3384 8.60612H4.16673Z" fill="#949399"/>
<path d="M18.1882 9.84717L18.3247 9.84382L18.3242 9.83703L18.1882 9.84717ZM18.1764 9.688L18.3124 9.67786L18.312 9.67427L18.1764 9.688ZM18.1921 10.0034L18.3285 10.0035L18.3284 10L18.1921 10.0034ZM18.1413 10.5551L18.2746 10.5842L18.2754 10.5799L18.1413 10.5551ZM18.0997 10.7464L18.232 10.7795L18.2329 10.7754L18.0997 10.7464ZM16.8507 15.7424L16.7184 15.7093V15.7093L16.8507 15.7424ZM14.0402 18.0566L14.0436 18.193L14.0472 18.1928L14.0402 18.0566ZM13.878 18.0607V18.1971L13.8815 18.197L13.878 18.0607ZM6.94365 16.7758L6.80727 16.7809L6.80769 16.7863L6.94365 16.7758ZM6.93945 16.6617H6.803L6.80318 16.6667L6.93945 16.6617ZM7.10156 8.72601L6.97722 8.66975L6.97512 8.67494L7.10156 8.72601ZM7.17695 8.55939L7.0549 8.49835L7.05271 8.50318L7.17695 8.55939ZM8.18453 6.54479L8.30661 6.60584L8.30901 6.60047L8.18453 6.54479ZM8.21862 6.4686L8.34309 6.52427L8.39877 6.3998L8.27429 6.34412L8.21862 6.4686ZM7.96966 6.35724L8.01443 6.22843L7.91398 6.48172L7.96966 6.35724ZM8.22727 6.44677L8.1825 6.57558L8.31085 6.62019L8.35592 6.492L8.22727 6.44677ZM8.25106 6.37911L8.37984 6.42438L8.38167 6.41829L8.25106 6.37911ZM9.10677 3.52672L9.23738 3.56591V3.56591L9.10677 3.52672ZM11.0962 1.94407L11.092 1.8077L11.0875 1.80799L11.0962 1.94407ZM11.2444 1.93945V1.80302L11.2401 1.80316L11.2444 1.93945ZM13.5047 4.09874L13.6384 4.12641L13.6393 4.12052L13.5047 4.09874ZM13.4717 4.25834L13.6041 4.29143L13.6052 4.28599L13.4717 4.25834ZM12.8016 6.93945L12.6693 6.90639L12.627 7.07582H12.8016V6.93945ZM4.43945 9.72733H4.57582V9.59097H4.43945V9.72733ZM4.43945 16.9395V17.0758H4.57582V16.9395H4.43945ZM3.06067 9.72733V9.59097H2.9243V9.72733H3.06067ZM3.06067 16.9395H2.9243V17.0758H3.06067V16.9395ZM11.6777 3.06067L11.6887 2.9243H11.6777V3.06067ZM11.7756 3.06856L11.7976 2.93353L11.7866 2.93264L11.7756 3.06856ZM10.226 3.72521L10.351 3.7796L10.351 3.7796L10.226 3.72521ZM10.2227 3.73265L10.0975 3.67817L10.0947 3.6858L10.2227 3.73265ZM10.183 3.84115L10.0547 3.79421L10.0524 3.80197L10.183 3.84115ZM9.32836 6.69003L9.19774 6.65085V6.65085L9.32836 6.69003ZM9.24251 6.92667L9.36624 6.98416L9.36787 6.98035L9.24251 6.92667ZM9.18539 7.04961L9.30741 7.11062L9.30906 7.10707L9.18539 7.04961ZM8.17744 9.06553L8.05547 9.00454H8.05547L8.17744 9.06553ZM8.06811 9.43204L8.20356 9.44784L8.20356 9.44784L8.06811 9.43204ZM8.0672 9.43991L7.93152 9.42408L7.93106 9.43199L8.0672 9.43991ZM8.06067 9.55225L7.9243 9.54433V9.55225H8.06067ZM8.06067 16.9395H7.9243V17.0758H8.06067V16.9395ZM15.7194 15.62L15.8487 15.6635L15.8502 15.6585L15.7194 15.62ZM15.7603 15.481L15.8912 15.5195L15.8926 15.5141L15.7603 15.481ZM17.0129 10.4704L17.1452 10.5035V10.5035L17.0129 10.4704ZM15.2759 8.06579L15.286 7.92971L15.2811 7.92953L15.2759 8.06579ZM15.1415 8.06067L15.1467 7.9243H15.1415V8.06067ZM11.5266 7.43378L11.3923 7.40797L11.3912 7.41717L11.5266 7.43378ZM11.5413 7.3568L11.4089 7.32368L11.4074 7.33106L11.5413 7.3568ZM12.3853 3.981L12.5176 4.01407V4.01407L12.3853 3.981ZM11.7865 3.07035L11.8085 2.93576V2.93576L11.7865 3.07035ZM5.55647 9.89094L5.69285 9.88593L5.69243 9.88044L5.55647 9.89094ZM5.56067 10.0051H5.69712L5.69694 10.0001L5.56067 10.0051ZM4.27583 18.0565L4.28084 18.1929L4.28633 18.1924L4.27583 18.0565ZM4.16176 18.0607V18.1971L4.16676 18.1969L4.16176 18.0607ZM1.94365 16.7758L1.80726 16.7809L1.80769 16.7863L1.94365 16.7758ZM1.93945 16.6617H1.803L1.80318 16.6667L1.93945 16.6617ZM3.22428 8.61031L3.21926 8.47393L3.21378 8.47436L3.22428 8.61031ZM3.3384 8.60612V8.46966L3.33339 8.46985L3.3384 8.60612ZM18.1882 9.84717L18.3242 9.83703L18.3124 9.67786L18.1764 9.688L18.0404 9.69813L18.0522 9.8573L18.1882 9.84717ZM18.1921 10.0034L18.3284 10L18.3245 9.84382L18.1882 9.84717L18.0519 9.85051L18.0557 10.0067L18.1921 10.0034ZM18.1413 10.5551L18.2754 10.5799C18.3104 10.3899 18.3282 10.197 18.3284 10.0035L18.1921 10.0034L18.0557 10.0032C18.0555 10.1802 18.0393 10.3566 18.0072 10.5304L18.1413 10.5551ZM18.0997 10.7464L18.2329 10.7754L18.2745 10.5841L18.1413 10.5551L18.0081 10.5261L17.9664 10.7174L18.0997 10.7464ZM16.8507 15.7424L16.983 15.7754L18.232 10.7795L18.0997 10.7464L17.9674 10.7134L16.7184 15.7093L16.8507 15.7424ZM14.0402 18.0566L14.0472 18.1928C15.4439 18.1208 16.6406 17.1447 16.983 15.7754L16.8507 15.7424L16.7184 15.7093C16.4053 16.9617 15.3106 17.8546 14.0332 17.9204L14.0402 18.0566ZM13.878 18.0607L13.8815 18.197L14.0436 18.1929L14.0402 18.0566L14.0368 17.9203L13.8746 17.9243L13.878 18.0607ZM8.33339 18.0607V18.197H13.878V18.0607V17.9243H8.33339V18.0607ZM6.94365 16.7758L6.80769 16.7863C6.86864 17.5756 7.52852 18.197 8.33339 18.197V18.0607V17.9243C7.67205 17.9243 7.12967 17.4136 7.07961 16.7653L6.94365 16.7758ZM6.93945 16.6617L6.80318 16.6667L6.80738 16.7809L6.94365 16.7758L7.07992 16.7708L7.07573 16.6567L6.93945 16.6617ZM6.93945 9.56017H6.80309V16.6617H6.93945H7.07582V9.56017H6.93945ZM7.10156 8.72601L6.97512 8.67494C6.86172 8.9557 6.80309 9.25621 6.80309 9.56017H6.93945H7.07582C7.07582 9.29128 7.12768 9.02545 7.228 8.77708L7.10156 8.72601ZM7.17695 8.55939L7.05271 8.50318L6.97732 8.6698L7.10156 8.72601L7.22579 8.78223L7.30119 8.61561L7.17695 8.55939ZM8.18453 6.54479L8.06257 6.48379L7.05499 8.49839L7.17695 8.55939L7.29891 8.62039L8.30649 6.60579L8.18453 6.54479ZM8.21862 6.4686L8.09414 6.41292L8.06005 6.48911L8.18453 6.54479L8.30901 6.60047L8.34309 6.52427L8.21862 6.4686ZM7.96966 6.35724L7.91398 6.48172L8.16294 6.59307L8.21862 6.4686L8.27429 6.34412L8.02534 6.23276L7.96966 6.35724ZM8.22727 6.44677L8.27204 6.31797L8.01443 6.22843L7.96966 6.35724L7.92489 6.48604L8.1825 6.57558L8.22727 6.44677ZM8.25106 6.37911L8.12241 6.33389L8.09862 6.40155L8.22727 6.44677L8.35592 6.492L8.3797 6.42433L8.25106 6.37911ZM9.10677 3.52672L8.97616 3.48754L8.12044 6.33992L8.25106 6.37911L8.38167 6.41829L9.23738 3.56591L9.10677 3.52672ZM11.0962 1.94407L11.0875 1.80799C10.1075 1.87099 9.26138 2.53681 8.97616 3.48754L9.10677 3.52672L9.23738 3.56591C9.48968 2.72491 10.2382 2.13588 11.105 2.08015L11.0962 1.94407ZM11.2444 1.93945L11.2401 1.80316L11.092 1.80777L11.0962 1.94407L11.1005 2.08037L11.2486 2.07575L11.2444 1.93945ZM11.6667 1.93945V1.80309H11.2444V1.93945V2.07582H11.6667V1.93945ZM13.5286 3.80135H13.665C13.665 2.69774 12.7703 1.80309 11.6667 1.80309V1.93945V2.07582C12.6197 2.07582 13.3923 2.84837 13.3923 3.80135H13.5286ZM13.5047 4.09874L13.6393 4.12052C13.6564 4.01508 13.665 3.90835 13.665 3.80135H13.5286H13.3923C13.3923 3.89374 13.3848 3.98591 13.3701 4.07696L13.5047 4.09874ZM13.4717 4.25834L13.6052 4.28599L13.6383 4.12638L13.5047 4.09874L13.3712 4.0711L13.3381 4.2307L13.4717 4.25834ZM12.8016 6.93945L12.9339 6.97252L13.604 4.29141L13.4717 4.25834L13.3394 4.22528L12.6693 6.90639L12.8016 6.93945ZM15.1315 6.93945V6.80309H12.8016V6.93945V7.07582H15.1315V6.93945ZM18.1764 9.688L18.312 9.67427C18.1489 8.06171 16.7871 6.80309 15.1315 6.80309V6.93945V7.07582C16.6457 7.07582 17.8915 8.22706 18.0407 9.70172L18.1764 9.688ZM4.43945 9.72733H4.30309V16.9395H4.43945H4.57582V9.72733H4.43945ZM3.06067 9.72733V9.8637H4.43945V9.72733V9.59097H3.06067V9.72733ZM3.06067 16.9395H3.19703V9.72733H3.06067H2.9243V16.9395H3.06067ZM4.43945 16.9395V16.8031H3.06067V16.9395V17.0758H4.43945V16.9395ZM11.6777 3.06067L11.6667 3.19659L11.7646 3.20449L11.7756 3.06856L11.7866 2.93264L11.6887 2.92474L11.6777 3.06067ZM11.2401 3.06067V3.19703H11.6777V3.06067V2.9243H11.2401V3.06067ZM10.226 3.72521L10.351 3.7796C10.5034 3.42917 10.8508 3.19703 11.2401 3.19703V3.06067V2.9243C10.7412 2.9243 10.2962 3.22178 10.1009 3.67082L10.226 3.72521ZM10.2227 3.73265L10.3478 3.78705L10.351 3.7796L10.226 3.72521L10.1009 3.67082L10.0977 3.67826L10.2227 3.73265ZM10.183 3.84115L10.3111 3.88801L10.3508 3.77951L10.2227 3.73265L10.0947 3.6858L10.055 3.7943L10.183 3.84115ZM9.32836 6.69003L9.45897 6.72922L10.3136 3.88034L10.183 3.84115L10.0524 3.80197L9.19774 6.65085L9.32836 6.69003ZM9.24251 6.92667L9.36787 6.98035C9.40293 6.89846 9.43335 6.81461 9.45897 6.72922L9.32836 6.69003L9.19774 6.65085C9.17508 6.72639 9.14817 6.80056 9.11716 6.873L9.24251 6.92667ZM9.18539 7.04961L9.30906 7.10707L9.36618 6.98413L9.24251 6.92667L9.11885 6.86922L9.06173 6.99215L9.18539 7.04961ZM8.17744 9.06553L8.2994 9.12651L9.30736 7.1106L9.18539 7.04961L9.06343 6.98863L8.05547 9.00454L8.17744 9.06553ZM8.06811 9.43204L8.20356 9.44784C8.21657 9.33626 8.24891 9.2275 8.2994 9.12651L8.17744 9.06553L8.05547 9.00454C7.99077 9.13393 7.94934 9.27329 7.93267 9.41624L8.06811 9.43204ZM8.0672 9.43991L8.20264 9.45571L8.20356 9.44784L8.06811 9.43204L7.93267 9.41624L7.93175 9.42411L8.0672 9.43991ZM8.06067 9.55225L8.1968 9.56017L8.20333 9.44782L8.0672 9.43991L7.93106 9.43199L7.92453 9.54434L8.06067 9.55225ZM8.06067 16.9395H8.19703V9.55225H8.06067H7.9243V16.9395H8.06067ZM13.8815 16.9395V16.8031H8.06067V16.9395V17.0758H13.8815V16.9395ZM15.7194 15.62L15.5901 15.5765C15.345 16.3044 14.6602 16.8031 13.8815 16.8031V16.9395V17.0758C14.778 17.0758 15.5663 16.5017 15.8486 15.6635L15.7194 15.62ZM15.7603 15.481L15.6295 15.4425L15.5886 15.5815L15.7194 15.62L15.8502 15.6585L15.8911 15.5195L15.7603 15.481ZM17.0129 10.4704L16.8806 10.4374L15.628 15.4479L15.7603 15.481L15.8926 15.5141L17.1452 10.5035L17.0129 10.4704ZM17.0708 10.0001H16.9345C16.9345 10.1475 16.9164 10.2943 16.8806 10.4374L17.0129 10.4704L17.1452 10.5035C17.1864 10.3389 17.2072 10.1698 17.2072 10.0001H17.0708ZM15.2759 8.06579L15.2659 8.20178C16.199 8.27062 16.9345 9.04948 16.9345 10.0001H17.0708H17.2072C17.2072 8.90558 16.3604 8.00907 15.286 7.9298L15.2759 8.06579ZM15.1415 8.06067L15.1363 8.19693L15.2707 8.20205L15.2759 8.06579L15.2811 7.92953L15.1467 7.9244L15.1415 8.06067ZM12.0834 8.06067V8.19703H15.1415V8.06067V7.9243H12.0834V8.06067ZM11.5266 7.43378L11.3912 7.41717C11.3412 7.82496 11.6599 8.19703 12.0834 8.19703V8.06067V7.9243C11.8258 7.9243 11.6316 7.69765 11.6619 7.45038L11.5266 7.43378ZM11.5413 7.3568L11.4074 7.33106L11.3926 7.40803L11.5266 7.43378L11.6605 7.45952L11.6753 7.38254L11.5413 7.3568ZM12.3853 3.981L12.253 3.94792L11.4091 7.32373L11.5413 7.3568L11.6736 7.38987L12.5176 4.01407L12.3853 3.981ZM12.4074 3.80135H12.2711C12.2711 3.85076 12.265 3.89999 12.253 3.94792L12.3853 3.981L12.5176 4.01407C12.535 3.9445 12.5438 3.87306 12.5438 3.80135H12.4074ZM11.7865 3.07035L11.7646 3.20493C12.0519 3.2518 12.2711 3.50093 12.2711 3.80135H12.4074H12.5438C12.5438 3.36492 12.2255 3.00377 11.8085 2.93576L11.7865 3.07035ZM11.7756 3.06856L11.7537 3.20315L11.7646 3.20493L11.7865 3.07035L11.8085 2.93576L11.7976 2.93398L11.7756 3.06856ZM5.55647 9.89094L5.69243 9.88044C5.63148 9.09123 4.9716 8.46976 4.16673 8.46976V8.60612V8.74248C4.82807 8.74248 5.37045 9.25323 5.42051 9.90144L5.55647 9.89094ZM5.56067 10.0051L5.69694 10.0001L5.69274 9.88593L5.55647 9.89094L5.4202 9.89595L5.42439 10.0101L5.56067 10.0051ZM5.56067 16.6667H5.69703V10.0051H5.56067H5.4243V16.6667H5.56067ZM4.27583 18.0565L4.28633 18.1924C5.07555 18.1315 5.69703 17.4716 5.69703 16.6667H5.56067H5.4243C5.4243 17.3281 4.91355 17.8705 4.26533 17.9205L4.27583 18.0565ZM4.16176 18.0607L4.16676 18.1969L4.28084 18.1927L4.27583 18.0565L4.27082 17.9202L4.15675 17.9244L4.16176 18.0607ZM3.33339 18.0607V18.197H4.16176V18.0607V17.9243H3.33339V18.0607ZM1.94365 16.7758L1.80769 16.7863C1.86864 17.5756 2.52852 18.197 3.33339 18.197V18.0607V17.9243C2.67205 17.9243 2.12967 17.4136 2.07961 16.7653L1.94365 16.7758ZM1.93945 16.6617L1.80318 16.6667L1.80738 16.7808L1.94365 16.7758L2.07992 16.7708L2.07572 16.6567L1.93945 16.6617ZM1.93945 10.0001H1.80309V16.6617H1.93945H2.07582V10.0001H1.93945ZM3.22428 8.61031L3.21378 8.47436C2.42456 8.5353 1.80309 9.19519 1.80309 10.0001H1.93945H2.07582C2.07582 9.33872 2.58656 8.79633 3.23478 8.74627L3.22428 8.61031ZM3.3384 8.60612L3.33339 8.46985L3.21927 8.47404L3.22428 8.61031L3.22928 8.74659L3.3434 8.74239L3.3384 8.60612ZM4.16673 8.60612V8.46976H3.3384V8.60612V8.74248H4.16673V8.60612Z" fill="#949399" mask="url(#path-1-outside-1_2061_4480)"/>
</svg>
