<svg width="36" height="36" viewBox="0 0 36 36" fill="none" xmlns="http://www.w3.org/2000/svg">
<path d="M17.9996 16.8972C17.7682 16.5219 17.4928 16.1756 17.1793 15.8656V12.4652H15.5386C15.321 12.4652 15.1123 12.3788 14.9585 12.225C14.8046 12.0711 14.7182 11.8625 14.7182 11.6449C14.7182 11.4273 14.8046 11.2187 14.9585 11.0648C15.1123 10.911 15.321 10.8245 15.5386 10.8245H17.1793V9.18382C17.1793 8.96625 17.2657 8.75759 17.4196 8.60374C17.5734 8.44989 17.7821 8.36346 17.9996 8.36346C18.2172 8.36346 18.4259 8.44989 18.5797 8.60374C18.7336 8.75759 18.82 8.96625 18.82 9.18382V10.8245H20.4607C20.6783 10.8245 20.8869 10.911 21.0408 11.0648C21.1946 11.2187 21.2811 11.4273 21.2811 11.6449C21.2811 11.8625 21.1946 12.0711 21.0408 12.225C20.8869 12.3788 20.6783 12.4652 20.4607 12.4652H18.82V15.8656C18.5064 16.1756 18.231 16.5219 17.9996 16.8972ZM23.332 14.106C21.5128 14.106 19.9265 14.7704 18.82 15.8656V26.4113C18.82 26.6289 18.7336 26.8375 18.5797 26.9914C18.4259 27.1452 18.2172 27.2317 17.9996 27.2317C17.7821 27.2317 17.5734 27.1452 17.4196 26.9914C17.2657 26.8375 17.1793 26.6289 17.1793 26.4113V15.8656C16.0728 14.7704 14.4865 14.106 12.6673 14.106C11.0361 14.1079 9.47226 14.7567 8.31882 15.9101C7.16538 17.0636 6.51655 18.6274 6.51465 20.2586C6.51465 23.3206 8.00565 25.2679 9.25566 26.3621C9.91257 26.9345 10.6468 27.4116 11.4368 27.7793V29.6927C11.4368 30.1279 11.6096 30.5452 11.9173 30.8529C12.225 31.1606 12.6424 31.3334 13.0775 31.3334H22.9218C23.3569 31.3334 23.7742 31.1606 24.0819 30.8529C24.3896 30.5452 24.5625 30.1279 24.5625 29.6927V27.7793C25.3525 27.4116 26.0867 26.9345 26.7436 26.3621C27.9936 25.2679 29.4846 23.3206 29.4846 20.2586C29.4827 18.6274 28.8339 17.0636 27.6805 15.9101C26.527 14.7567 24.9632 14.1079 23.332 14.106Z" fill="#C7C7D0"/>
</svg>
