<svg width="70" height="70" viewBox="0 0 70 70" fill="none" xmlns="http://www.w3.org/2000/svg">
<g clip-path="url(#clip0_24060_69567)">
<path d="M69.9976 70.001V0.000976562L-0.00244141 70.001H69.9976Z" fill="#B8896E"/>
<path d="M39.9065 43.3426L39.4164 42.1993C40.1084 42.2565 41.8671 42.3994 43.0204 42.3994H52.1314C52.0161 41.1132 51.9296 39.7413 51.8431 38.255C51.7566 37.1974 51.7278 35.7969 51.6701 34.9395C55.0147 35.2539 56.2544 35.5111 56.2544 35.997C56.2544 36.1971 56.1968 36.34 56.0814 36.4829C56.1968 36.4829 56.3409 36.4829 56.4851 36.5115C58.7917 36.7973 60.1468 38.1978 60.1468 39.6269C60.1468 39.9699 60.0603 40.3129 59.9161 40.5987C60.0026 40.513 60.0603 40.4272 60.118 40.4272C60.3486 40.4272 60.6658 40.7131 62.1651 41.9993C62.4822 42.1707 62.8859 42.6281 62.8859 42.8567C62.8859 43.0854 62.7129 43.1711 62.3669 43.1711H55.476C55.9661 49.0876 57.1771 52.8891 59.1665 55.7187C59.5413 56.2332 60.0891 57.2336 60.6369 57.2336C60.8388 57.2336 61.0983 57.0335 61.2713 56.4904C61.5596 55.8044 61.9056 54.4611 62.1651 53.4321C62.4245 52.689 62.7994 52.4032 62.7994 53.2035C62.7994 53.3178 62.7994 53.4893 62.7705 53.6036C62.684 54.8898 62.4245 57.0049 62.4245 57.748C62.4245 58.4626 62.7705 59.3486 62.7705 59.9774C62.7705 60.9207 62.0497 61.2065 61.1559 61.2065C59.8585 61.2065 57.4366 59.3486 56.4851 57.8909C55.1876 56.0331 54.2073 53.8037 53.4865 50.8597C53.3712 50.9455 53.1982 51.0026 53.0829 51.0026H49.3059V56.2903C50.8916 56.0617 52.3332 55.8616 53.3135 55.6901C53.4865 55.6615 53.6307 55.6615 53.6884 55.6615C53.9479 55.6615 54.0632 55.7473 54.0632 55.8616C54.0632 55.9759 53.919 56.1474 53.573 56.3475C50.661 57.8338 45.4423 59.5201 41.55 60.3776C41.4346 60.9778 41.0886 61.4923 40.8292 61.4923C40.5408 61.4923 40.1084 61.378 39.1281 57.0906C39.8489 57.0621 40.685 57.0621 41.5788 57.0049V49.8022C41.5788 48.0301 41.4346 46.6867 41.3481 46.258C43.9142 46.4295 45.8171 46.6296 45.8171 47.0869C45.8171 47.5156 45.4423 47.8014 44.8368 48.1158V56.7762L46.0766 56.6619V47.5442C46.0766 45.7435 45.9613 44.4287 45.8748 44.0286C48.3832 44.2001 50.315 44.3716 50.315 44.8575C50.315 45.229 49.9402 45.572 49.3059 45.8864V50.1738H49.7672C50.7186 48.8018 50.9781 48.4017 51.18 48.4017C51.3529 48.4017 51.9584 48.8304 52.6792 49.6307L53.3135 50.2309C52.8522 48.2302 52.4774 45.915 52.1891 43.1711H43.1069C42.0978 43.1711 40.6562 43.2283 39.9065 43.3426ZM55.1876 37.0545C55.2165 38.9981 55.2741 40.7988 55.4183 42.3994H58.561C58.9647 41.8278 59.2818 41.3419 59.5413 41.0275C59.3683 41.1704 59.08 41.2275 58.8493 41.2275C58.4169 41.2275 57.6096 40.8274 57.4366 39.9985C57.2347 38.9124 56.9176 37.912 55.9949 37.1117C55.8508 36.9688 55.7355 36.8545 55.7066 36.7687C55.5913 36.8545 55.4183 36.9688 55.1876 37.0545ZM41.2905 39.0267L40.8292 37.8834C41.55 37.9406 42.3861 38.0549 43.5971 38.0549H47.7777C48.8734 36.683 49.0464 36.2828 49.2482 36.2828C49.5942 36.2828 50.4015 37.2546 51.1223 37.9406C51.3529 38.1692 51.5548 38.3979 51.5548 38.598C51.5548 38.7695 51.3529 38.8552 51.0358 38.8552H43.6836C42.6744 38.8552 42.0401 38.8838 41.2905 39.0267Z" fill="#180A3F"/>
</g>
<defs>
<clipPath id="clip0_24060_69567">
<rect width="70" height="70" fill="white"/>
</clipPath>
</defs>
</svg>
