<svg width="70" height="70" viewBox="0 0 70 70" fill="none" xmlns="http://www.w3.org/2000/svg">
<g clip-path="url(#clip0_24060_69591)">
<path d="M69.9976 70.001V0.000976562L-0.00244141 70.001H69.9976Z" fill="#9560BF"/>
<path d="M50.301 50.3144H50.3115M54.0068 54.0201C49.0949 58.932 43.4539 61.2547 41.4073 59.2081C39.3607 57.1615 41.6834 51.5205 46.5953 46.6086C51.5072 41.6967 57.1482 39.374 59.1948 41.4206C61.2414 43.4672 58.9186 49.1082 54.0068 54.0201ZM54.0067 46.6084C58.9186 51.5203 61.2414 57.1613 59.1947 59.2079C57.1481 61.2545 51.5071 58.9318 46.5953 54.0199C41.6834 49.108 39.3606 43.467 41.4072 41.4204C43.4539 39.3738 49.0948 41.6966 54.0067 46.6084ZM50.8251 50.3144C50.8251 50.6038 50.5905 50.8384 50.301 50.8384C50.0116 50.8384 49.777 50.6038 49.777 50.3144C49.777 50.0249 50.0116 49.7903 50.301 49.7903C50.5905 49.7903 50.8251 50.0249 50.8251 50.3144Z" stroke="#1A103F" stroke-width="1.91217" stroke-linecap="round" stroke-linejoin="round"/>
</g>
<defs>
<clipPath id="clip0_24060_69591">
<rect width="70" height="70" fill="white"/>
</clipPath>
</defs>
</svg>
