<svg width="70" height="70" viewBox="0 0 70 70" fill="none" xmlns="http://www.w3.org/2000/svg">
<g clip-path="url(#clip0_24060_69573)">
<path d="M69.9976 70.001V0.000976562L-0.00244141 70.001H69.9976Z" fill="#E586CA"/>
<mask id="path-2-inside-1_24060_69573" fill="white">
<path d="M49.8824 42.4444L49.3559 42.9514C49.4241 43.0222 49.5059 43.0785 49.5963 43.117C49.6868 43.1554 49.7841 43.1752 49.8824 43.1752C49.9807 43.1752 50.078 43.1554 50.1684 43.117C50.2589 43.0785 50.3407 43.0222 50.4089 42.9514L49.8824 42.4444ZM45.0083 53.0916C44.8583 52.9682 44.6655 52.9095 44.4722 52.9283C44.2789 52.9472 44.1011 53.042 43.9777 53.192C43.8544 53.342 43.7956 53.5348 43.8145 53.7281C43.8333 53.9214 43.9282 54.0992 44.0781 54.2226L45.0083 53.0916ZM40.4657 50.1578C40.5118 50.242 40.574 50.3164 40.6489 50.3766C40.7237 50.4368 40.8097 50.4816 40.9018 50.5086C40.994 50.5356 41.0906 50.5441 41.186 50.5338C41.2815 50.5235 41.374 50.4944 41.4583 50.4483C41.5425 50.4022 41.6169 50.34 41.6771 50.2652C41.7373 50.1903 41.7821 50.1044 41.8091 50.0122C41.8361 49.92 41.8447 49.8235 41.8343 49.728C41.824 49.6325 41.7949 49.54 41.7488 49.4558L40.4657 50.1578ZM40.8635 45.9906C40.8635 43.8943 42.0482 42.1354 43.6657 41.3953C45.2374 40.6767 47.3493 40.8669 49.3559 42.9514L50.4089 41.9384C48.0299 39.4648 45.2647 39.0563 43.0573 40.0654C40.8986 41.0531 39.401 43.3463 39.401 45.9906H40.8635ZM46.4669 56.0946C46.9671 56.4885 47.5034 56.9078 48.0464 57.2256C48.5895 57.5425 49.2096 57.8009 49.8824 57.8009V56.3384C49.5801 56.3384 49.2252 56.2214 48.7845 55.963C48.3428 55.7056 47.8856 55.3507 47.3727 54.9461L46.4669 56.0946ZM53.2979 56.0946C54.6882 54.9977 56.4667 53.7419 57.8609 52.1712C59.2815 50.5721 60.3638 48.5899 60.3638 45.9906H58.9013C58.9013 48.1336 58.0237 49.7843 56.7679 51.2001C55.4858 52.6431 53.8702 53.7809 52.3921 54.9461L53.2979 56.0946ZM60.3638 45.9906C60.3638 43.3463 58.8671 41.0531 56.7075 40.0654C54.5 39.0563 51.7369 39.4648 49.3559 41.9374L50.4089 42.9514C52.4155 40.8678 54.5274 40.6767 56.0991 41.3953C57.7166 42.1354 58.9013 43.8933 58.9013 45.9906H60.3638ZM52.3921 54.9461C51.8792 55.3507 51.4219 55.7056 50.9803 55.963C50.5395 56.2204 50.1846 56.3384 49.8824 56.3384V57.8009C50.5551 57.8009 51.1753 57.5425 51.7183 57.2256C52.2624 56.9078 52.7977 56.4885 53.2979 56.0946L52.3921 54.9461ZM47.3727 54.9461C46.5966 54.3347 45.8078 53.7497 45.0083 53.0916L44.0781 54.2226C44.8874 54.8885 45.7435 55.5242 46.4669 56.0946L47.3727 54.9461ZM41.7488 49.4558C41.1615 48.3954 40.8566 47.2027 40.8635 45.9906H39.401C39.401 47.5876 39.8105 48.9595 40.4657 50.1578L41.7488 49.4558Z"/>
</mask>
<path d="M49.8824 42.4444L49.3559 42.9514C49.4241 43.0222 49.5059 43.0785 49.5963 43.117C49.6868 43.1554 49.7841 43.1752 49.8824 43.1752C49.9807 43.1752 50.078 43.1554 50.1684 43.117C50.2589 43.0785 50.3407 43.0222 50.4089 42.9514L49.8824 42.4444ZM45.0083 53.0916C44.8583 52.9682 44.6655 52.9095 44.4722 52.9283C44.2789 52.9472 44.1011 53.042 43.9777 53.192C43.8544 53.342 43.7956 53.5348 43.8145 53.7281C43.8333 53.9214 43.9282 54.0992 44.0781 54.2226L45.0083 53.0916ZM40.4657 50.1578C40.5118 50.242 40.574 50.3164 40.6489 50.3766C40.7237 50.4368 40.8097 50.4816 40.9018 50.5086C40.994 50.5356 41.0906 50.5441 41.186 50.5338C41.2815 50.5235 41.374 50.4944 41.4583 50.4483C41.5425 50.4022 41.6169 50.34 41.6771 50.2652C41.7373 50.1903 41.7821 50.1044 41.8091 50.0122C41.8361 49.92 41.8447 49.8235 41.8343 49.728C41.824 49.6325 41.7949 49.54 41.7488 49.4558L40.4657 50.1578ZM40.8635 45.9906C40.8635 43.8943 42.0482 42.1354 43.6657 41.3953C45.2374 40.6767 47.3493 40.8669 49.3559 42.9514L50.4089 41.9384C48.0299 39.4648 45.2647 39.0563 43.0573 40.0654C40.8986 41.0531 39.401 43.3463 39.401 45.9906H40.8635ZM46.4669 56.0946C46.9671 56.4885 47.5034 56.9078 48.0464 57.2256C48.5895 57.5425 49.2096 57.8009 49.8824 57.8009V56.3384C49.5801 56.3384 49.2252 56.2214 48.7845 55.963C48.3428 55.7056 47.8856 55.3507 47.3727 54.9461L46.4669 56.0946ZM53.2979 56.0946C54.6882 54.9977 56.4667 53.7419 57.8609 52.1712C59.2815 50.5721 60.3638 48.5899 60.3638 45.9906H58.9013C58.9013 48.1336 58.0237 49.7843 56.7679 51.2001C55.4858 52.6431 53.8702 53.7809 52.3921 54.9461L53.2979 56.0946ZM60.3638 45.9906C60.3638 43.3463 58.8671 41.0531 56.7075 40.0654C54.5 39.0563 51.7369 39.4648 49.3559 41.9374L50.4089 42.9514C52.4155 40.8678 54.5274 40.6767 56.0991 41.3953C57.7166 42.1354 58.9013 43.8933 58.9013 45.9906H60.3638ZM52.3921 54.9461C51.8792 55.3507 51.4219 55.7056 50.9803 55.963C50.5395 56.2204 50.1846 56.3384 49.8824 56.3384V57.8009C50.5551 57.8009 51.1753 57.5425 51.7183 57.2256C52.2624 56.9078 52.7977 56.4885 53.2979 56.0946L52.3921 54.9461ZM47.3727 54.9461C46.5966 54.3347 45.8078 53.7497 45.0083 53.0916L44.0781 54.2226C44.8874 54.8885 45.7435 55.5242 46.4669 56.0946L47.3727 54.9461ZM41.7488 49.4558C41.1615 48.3954 40.8566 47.2027 40.8635 45.9906H39.401C39.401 47.5876 39.8105 48.9595 40.4657 50.1578L41.7488 49.4558Z" fill="#FFF4FD"/>
<path d="M47.3727 54.9461L55.8837 61.658L38.8638 48.2315L47.3727 54.9461ZM53.2979 56.0946L44.7869 62.8066L61.8108 49.3852L53.2979 56.0946ZM46.9203 55.5194L55.4292 62.2339L55.8817 61.6606L47.3727 54.9461L38.8638 48.2315L38.4114 48.8048L46.9203 55.5194ZM52.8445 55.5194L44.3315 62.2288L44.7849 62.804L53.2979 56.0946L61.8108 49.3852L61.3575 48.8099L52.8445 55.5194ZM44.0781 54.2226L52.4498 61.1075L53.3799 59.9765L45.0083 53.0916L36.6367 46.2066L35.7065 47.3376L44.0781 54.2226ZM41.7488 49.4558L36.5463 39.9468L35.2632 40.6488L40.4657 50.1578L45.6682 59.6668L46.9513 58.9647L41.7488 49.4558ZM39.401 45.9906V56.8297H40.8635V45.9906V35.1514H39.401V45.9906ZM49.8824 57.8009H60.7215V56.3384H49.8824H39.0433V57.8009H49.8824ZM47.3727 54.9461L38.8617 48.2341L37.956 49.3827L46.4669 56.0946L54.9779 62.8066L55.8837 61.658L47.3727 54.9461ZM60.3638 45.9906V35.1514H58.9013V45.9906V56.8297H60.3638V45.9906ZM52.3921 54.9461L43.8811 61.658L44.7869 62.8066L53.2979 56.0946L61.8088 49.3827L60.903 48.2341L52.3921 54.9461ZM47.3727 54.9461L60.8003 37.927L60.7935 37.9217L60.7868 37.9164L47.3727 54.9461ZM49.8824 42.4444L64.9193 26.8291L49.8824 12.3491L34.8454 26.8291L49.8824 42.4444ZM49.3559 42.9514L33.7376 57.9853L33.7426 57.9905L33.7475 57.9956L49.3559 42.9514ZM50.4089 42.9514L66.0173 57.9956L66.0237 57.989L50.4089 42.9514ZM53.2979 56.0946L66.7102 73.1257L66.7176 73.1199L66.7249 73.1141L53.2979 56.0946ZM45.0083 53.0916L58.7858 36.3545L58.7782 36.3483L45.0083 53.0916ZM44.0781 54.2226L57.8528 37.4832L57.848 37.4793L44.0781 54.2226ZM40.4657 50.1578L21.4451 60.558L21.4477 60.5627L40.4657 50.1578ZM41.7488 49.4558L60.7668 39.0508L60.7398 39.0014L60.7125 38.9521L41.7488 49.4558ZM40.8635 45.9906L62.5414 46.1138L62.5418 46.0522V45.9906H40.8635ZM43.6657 41.3953L34.6519 21.6799L34.6469 21.6822L43.6657 41.3953ZM50.4089 41.9384L65.4383 57.5609L81.0587 42.5336L66.0335 26.9112L50.4089 41.9384ZM43.0573 40.0654L34.0441 20.3497L34.0378 20.3525L43.0573 40.0654ZM46.4669 56.0946L33.0453 73.1183L33.0546 73.1257L46.4669 56.0946ZM48.0464 57.2256L37.0962 75.935L37.1088 75.9423L37.1213 75.9496L48.0464 57.2256ZM48.7845 55.963L59.7487 37.2618L59.7243 37.2475L59.6999 37.2333L48.7845 55.963ZM57.8609 52.1712L41.6546 37.7732L41.6484 37.7801L57.8609 52.1712ZM56.7679 51.2001L72.9735 65.5989L72.9794 65.5923L72.9853 65.5857L56.7679 51.2001ZM52.3921 54.9461L38.972 37.9211L38.9645 37.927L52.3921 54.9461ZM56.7075 40.0654L65.7236 20.351L65.7206 20.3497L56.7075 40.0654ZM49.3559 41.9374L33.7404 26.9007L18.7039 42.516L34.3189 57.5527L49.3559 41.9374ZM56.0991 41.3953L65.1179 21.6822L65.1129 21.6799L56.0991 41.3953ZM50.9803 55.963L40.0649 37.2333L40.0559 37.2385L40.0469 37.2438L50.9803 55.963ZM51.7183 57.2256L62.6435 75.9496L62.6539 75.9436L51.7183 57.2256ZM49.8824 42.4444L34.8454 26.8291L34.3189 27.3361L49.3559 42.9514L64.3928 58.5667L64.9193 58.0597L49.8824 42.4444ZM49.3559 42.9514L33.7475 57.9956C35.8379 60.1644 38.3442 61.8896 41.1165 63.0679L49.5963 43.117L58.0762 23.166C60.6676 24.2675 63.0103 25.88 64.9642 27.9073L49.3559 42.9514ZM49.5963 43.117L41.1165 63.0679C43.8888 64.2462 46.8701 64.8535 49.8824 64.8535V43.1752V21.497C52.6981 21.497 55.4848 22.0646 58.0762 23.166L49.5963 43.117ZM49.8824 43.1752V64.8535C52.8946 64.8535 55.876 64.2462 58.6483 63.0679L50.1684 43.117L41.6886 23.166C44.2799 22.0646 47.0667 21.497 49.8824 21.497V43.1752ZM50.1684 43.117L58.6483 63.0679C61.4206 61.8896 63.9269 60.1644 66.0173 57.9956L50.4089 42.9514L34.8005 27.9073C36.7545 25.88 39.0972 24.2675 41.6886 23.166L50.1684 43.117ZM50.4089 42.9514L65.4459 27.3361L64.9193 26.8291L49.8824 42.4444L34.8454 58.0597L35.3719 58.5667L50.4089 42.9514ZM45.0083 53.0916L58.7782 36.3483C54.1876 32.5729 48.2853 30.7758 42.3697 31.3523L44.4722 52.9283L46.5747 74.5044C41.0457 75.0432 35.5291 73.3636 31.2384 69.8349L45.0083 53.0916ZM44.4722 52.9283L42.3697 31.3523C36.4541 31.9287 31.0098 34.8315 27.2344 39.4221L43.9777 53.192L60.721 66.9619C57.1923 71.2525 52.1037 73.9656 46.5747 74.5044L44.4722 52.9283ZM43.9777 53.192L27.2344 39.4221C23.4591 44.0126 21.662 49.9149 22.2384 55.8306L43.8145 53.7281L65.3906 51.6256C65.9293 57.1547 64.2496 62.6713 60.721 66.9619L43.9777 53.192ZM43.8145 53.7281L22.2384 55.8306C22.8148 61.7462 25.7176 67.1905 30.3082 70.9659L44.0781 54.2226L57.848 37.4793C62.1387 41.008 64.8518 46.0966 65.3906 51.6256L43.8145 53.7281ZM40.4657 50.1578L21.4477 60.5627C22.8602 63.1445 24.7674 65.4227 27.0604 67.2674L40.6489 50.3766L54.2374 33.4857C56.3807 35.21 58.1634 37.3395 59.4837 39.7528L40.4657 50.1578ZM40.6489 50.3766L27.0604 67.2674C29.3533 69.1121 31.9872 70.487 34.8115 71.3138L40.9018 50.5086L46.9921 29.7034C49.6321 30.4762 52.0941 31.7615 54.2374 33.4857L40.6489 50.3766ZM40.9018 50.5086L34.8115 71.3138C37.6359 72.1406 40.5955 72.4029 43.5211 72.0859L41.186 50.5338L38.851 28.9817C41.5857 28.6854 44.352 28.9306 46.9921 29.7034L40.9018 50.5086ZM41.186 50.5338L43.5211 72.0859C46.4469 71.769 49.2815 70.8788 51.8633 69.4663L41.4583 50.4483L31.0533 31.4303C33.4665 30.11 36.1162 29.278 38.851 28.9817L41.186 50.5338ZM41.4583 50.4483L51.8633 69.4663C54.445 68.0538 56.7232 66.1467 58.5679 63.8537L41.6771 50.2652L24.7863 36.6766C26.5105 34.5333 28.6401 32.7506 31.0533 31.4303L41.4583 50.4483ZM41.6771 50.2652L58.5679 63.8537C60.4125 61.5607 61.7875 58.9269 62.6143 56.1025L41.8091 50.0122L21.0039 43.9219C21.7768 41.2819 23.062 38.8199 24.7863 36.6766L41.6771 50.2652ZM41.8091 50.0122L62.6143 56.1025C63.4411 53.2782 63.7035 50.3186 63.3865 47.3929L41.8343 49.728L20.2822 52.0631C19.9859 49.3283 20.2311 46.5619 21.0039 43.9219L41.8091 50.0122ZM41.8343 49.728L63.3865 47.3929C63.0695 44.4672 62.1793 41.6325 60.7668 39.0508L41.7488 49.4558L22.7308 59.8607C21.4105 57.4475 20.5785 54.7978 20.2822 52.0631L41.8343 49.728ZM40.8635 45.9906H62.5418C62.5418 52.012 59.1055 58.1708 52.6846 61.1085L43.6657 41.3953L34.6469 21.6822C24.9908 26.0999 19.1852 35.7765 19.1852 45.9906H40.8635ZM43.6657 41.3953L52.6795 61.1108C49.3781 62.6202 45.481 63.1428 41.6129 62.2771C37.7714 61.4173 35.1705 59.4739 33.7376 57.9853L49.3559 42.9514L64.9742 27.9176C57.397 20.0459 45.6145 16.6678 34.6519 21.6799L43.6657 41.3953ZM49.3559 42.9514L64.3853 58.574L65.4383 57.5609L50.4089 41.9384L35.3794 26.3159L34.3264 27.3289L49.3559 42.9514ZM50.4089 41.9384L66.0335 26.9112C58.1201 18.6831 45.6883 15.0265 34.0441 20.3497L43.0573 40.0654L52.0705 59.7811C48.9483 61.2085 45.3554 61.6224 41.8996 60.8431C38.4739 60.0705 36.1188 58.3533 34.7843 56.9656L50.4089 41.9384ZM43.0573 40.0654L34.0378 20.3525C23.8345 25.021 17.7227 35.2361 17.7227 45.9906H39.401H61.0793C61.0793 51.4565 57.9627 57.0852 52.0768 59.7783L43.0573 40.0654ZM46.4669 56.0946L33.0546 73.1257C33.3698 73.3739 35.0541 74.7398 37.0962 75.935L48.0464 57.2256L58.9966 38.5163C59.3062 38.6974 59.5485 38.854 59.7138 38.9649C59.8798 39.0762 59.9969 39.1607 60.0534 39.2021C60.1096 39.2432 60.1298 39.2594 60.0958 39.2332C60.0571 39.2033 60.0019 39.1602 59.8793 39.0636L46.4669 56.0946ZM48.0464 57.2256L37.1213 75.9496C39.1583 77.1382 43.7022 79.4792 49.8824 79.4792V57.8009V36.1226C54.717 36.1226 58.0208 37.9468 58.9716 38.5016L48.0464 57.2256ZM49.8824 56.3384V34.6601C55.07 34.6601 58.6367 36.6098 59.7487 37.2618L48.7845 55.963L37.8203 74.6642C39.8138 75.8329 44.0902 78.0166 49.8824 78.0166V56.3384ZM48.7845 55.963L59.6999 37.2333C60.3727 37.6253 60.8182 37.9499 60.9322 38.0335C61.0026 38.0851 61.0331 38.1093 61.0032 38.0862C60.9709 38.0612 60.9159 38.0182 60.8003 37.927L47.3727 54.9461L33.9451 71.9651C34.2487 72.2046 35.8891 73.5387 37.8692 74.6927L48.7845 55.963ZM53.2979 56.0946L66.7249 73.1141C66.834 73.028 71.0088 70.0148 74.0735 66.5622L57.8609 52.1712L41.6484 37.7801C42.031 37.3491 42.2194 37.2311 41.865 37.5206C41.7035 37.6525 41.4953 37.8165 41.1526 38.0811C40.8895 38.2842 40.3368 38.7075 39.8708 39.0751L53.2979 56.0946ZM57.8609 52.1712L74.0673 66.5691C77.9038 62.2508 82.0421 55.3584 82.0421 45.9906H60.3638H38.6855C38.6855 44.1596 39.0913 42.345 39.7968 40.7386C40.463 39.2217 41.2413 38.2384 41.6546 37.7732L57.8609 52.1712ZM58.9013 45.9906H37.223C37.223 43.9713 37.6633 41.9597 38.4549 40.1559C39.2024 38.4528 40.0827 37.3419 40.5506 36.8144L56.7679 51.2001L72.9853 65.5857C76.6485 61.456 80.5795 54.8992 80.5795 45.9906H58.9013ZM56.7679 51.2001L40.5624 36.8012C41.0049 36.3031 41.2658 36.1222 40.9567 36.3741C40.8111 36.4928 40.6145 36.6476 40.266 36.9169C39.9845 37.1343 39.4522 37.5426 38.972 37.9211L52.3921 54.9461L65.8121 71.971C65.9868 71.8333 70.0188 68.9244 72.9735 65.5989L56.7679 51.2001ZM60.3638 45.9906H82.0421C82.0421 35.2408 75.935 25.0211 65.7236 20.351L56.7075 40.0654L47.6914 59.7798C41.7993 57.0851 38.6855 51.4519 38.6855 45.9906H60.3638ZM56.7075 40.0654L65.7206 20.3497C54.0733 15.025 41.6495 18.6871 33.7404 26.9007L49.3559 41.9374L64.9714 56.9741C63.6413 58.3554 61.2896 60.071 57.8648 60.8432C54.4083 61.6225 50.8154 61.208 47.6943 59.7811L56.7075 40.0654ZM49.3559 41.9374L34.3189 57.5527L35.3719 58.5667L50.4089 42.9514L65.4459 27.3361L64.3928 26.3221L49.3559 41.9374ZM50.4089 42.9514L66.0237 57.989C64.5918 59.4758 61.993 61.4173 58.1544 62.2769C54.2887 63.1426 50.3906 62.6219 47.0852 61.1108L56.0991 41.3953L65.1129 21.6799C54.1448 16.6653 42.3653 20.0521 34.7941 27.9139L50.4089 42.9514ZM56.0991 41.3953L47.0802 61.1085C40.6614 58.1718 37.223 52.0135 37.223 45.9906H58.9013H80.5795C80.5795 35.7731 74.7719 26.0989 65.1179 21.6822L56.0991 41.3953ZM52.3921 54.9461L38.9645 37.927C38.8489 38.0182 38.7939 38.0612 38.7615 38.0862C38.7317 38.1093 38.7622 38.0851 38.8326 38.0335C38.9465 37.9499 39.3921 37.6253 40.0649 37.2333L50.9803 55.963L61.8956 74.6927C63.8757 73.5387 65.5161 72.2046 65.8196 71.9651L52.3921 54.9461ZM50.9803 55.963L40.0469 37.2438C41.1045 36.626 44.6751 34.6601 49.8824 34.6601V56.3384V78.0166C55.6942 78.0166 59.9746 75.8147 61.9136 74.6822L50.9803 55.963ZM49.8824 57.8009V79.4792C56.0626 79.4792 60.6065 77.1382 62.6435 75.9496L51.7183 57.2256L40.7932 38.5016C41.744 37.9468 45.0477 36.1226 49.8824 36.1226V57.8009ZM51.7183 57.2256L62.6539 75.9436C64.7115 74.7415 66.4102 73.3619 66.7102 73.1257L53.2979 56.0946L39.8855 39.0636C39.7595 39.1628 39.7041 39.2061 39.6643 39.2369C39.6296 39.2637 39.6505 39.247 39.708 39.2049C39.7657 39.1625 39.8852 39.0763 40.0542 38.963C40.2227 38.8501 40.4688 38.6911 40.7828 38.5077L51.7183 57.2256ZM47.3727 54.9461L60.7868 37.9164C59.2902 36.7375 59.424 36.8799 58.7858 36.3545L45.0083 53.0916L31.2308 69.8286C32.1917 70.6196 33.903 71.9319 33.9586 71.9757L47.3727 54.9461ZM44.0781 54.2226L30.3035 70.9619C30.9702 71.5106 31.5972 71.9985 32.0484 72.3472C32.5966 72.7709 32.7923 72.9189 33.0453 73.1183L46.4669 56.0946L59.8886 39.0709C59.4181 38.7 58.824 38.2449 58.561 38.0416C58.201 37.7634 57.9953 37.6005 57.8528 37.4832L44.0781 54.2226ZM41.7488 49.4558L60.7125 38.9521C61.9244 41.1401 62.5557 43.6065 62.5414 46.1138L40.8635 45.9906L19.1856 45.8673C19.1576 50.7989 20.3986 55.6506 22.7852 59.9594L41.7488 49.4558ZM39.401 45.9906H17.7227C17.7227 51.5129 19.1911 56.4356 21.4451 60.558L40.4657 50.1578L59.4863 39.7576C60.4299 41.4833 61.0793 43.6623 61.0793 45.9906H39.401Z" fill="#FFF4FD" mask="url(#path-2-inside-1_24060_69573)"/>
</g>
<defs>
<clipPath id="clip0_24060_69573">
<rect width="70" height="70" fill="white"/>
</clipPath>
</defs>
</svg>
