<svg width="36" height="36" viewBox="0 0 36 36" fill="none" xmlns="http://www.w3.org/2000/svg">
<path d="M28.1007 30.133C28.1007 30.3423 27.9311 30.5119 27.7218 30.5119H8.2852C8.07591 30.5119 7.90625 30.3423 7.90625 30.133V24.1594C7.90625 23.9501 8.07591 23.7804 8.2852 23.7804H14.2588C14.4681 23.7804 14.6377 23.6108 14.6377 23.4015V17.4279C14.6377 17.2186 14.8074 17.0489 15.0167 17.0489H20.9903C21.1996 17.0489 21.3692 16.8793 21.3692 16.67V10.6964C21.3692 10.4871 21.5389 10.3174 21.7482 10.3174H27.7218C27.9311 10.3174 28.1007 10.4871 28.1007 10.6964V30.133Z" fill="#C7C7D0"/>
</svg>
