<svg width="30" height="30" viewBox="0 0 30 30" fill="none" xmlns="http://www.w3.org/2000/svg">
<path d="M5.37106 27.8176C5.22519 28.6473 6.04563 29.2967 6.7702 28.9251L15 24.7043V0.967773C14.6579 0.967773 14.3159 1.15007 14.1314 1.51467L10.0362 9.60949L0.851572 10.9114C0.0247175 11.0287 -0.294783 12.1018 0.322431 12.6887L6.9268 18.9688L5.37106 27.8176Z" fill="#FF9985"/>
<path d="M24.6289 27.8176C24.7748 28.6473 23.9544 29.2967 23.2298 28.9251L15 24.7043V0.967773C15.3421 0.967773 15.6841 1.15007 15.8686 1.51467L19.9638 9.60949L29.1484 10.9114C29.9753 11.0287 30.2948 12.1018 29.6776 12.6887L23.0732 18.9688L24.6289 27.8176Z" fill="#DDDDE3"/>
</svg>
