<svg width="18" height="18" viewBox="0 0 18 18" fill="none" xmlns="http://www.w3.org/2000/svg">
<g transform="translate(1.5 2.25) scale(0.91667)">
<g id="Icon">
<path d="M0 2.61818C0 1.70173 0 1.24351 0.178353 0.89347C0.335237 0.585568 0.585568 0.335237 0.89347 0.178353C1.24351 0 1.70173 0 2.61818 0H2.94545C4.77835 0 5.6948 0 6.39488 0.356706C7.01068 0.670473 7.51134 1.17114 7.82511 1.78694C8.18182 2.48701 8.18182 3.40346 8.18182 5.23636V14.7273L8.09996 14.6045C7.53161 13.752 7.24744 13.3257 6.87199 13.0171C6.53961 12.7439 6.15663 12.539 5.74495 12.4139C5.27993 12.2727 4.76763 12.2727 3.74304 12.2727H2.61818C1.70173 12.2727 1.24351 12.2727 0.89347 12.0944C0.585568 11.9375 0.335237 11.6872 0.178353 11.3793C0 11.0292 0 10.571 0 9.65455V2.61818Z" fill="#949399"/>
<path d="M16.3636 2.61818C16.3636 1.70173 16.3636 1.24351 16.1853 0.89347C16.0284 0.585568 15.7781 0.335237 15.4702 0.178353C15.1201 0 14.6619 0 13.7455 0H13.4182C11.5853 0 10.6688 0 9.96876 0.356706C9.35296 0.670473 8.85229 1.17114 8.53852 1.78694C8.18182 2.48701 8.18182 3.40346 8.18182 5.23636V14.7273L8.26368 14.6045C8.83202 13.752 9.1162 13.3257 9.49164 13.0171C9.82403 12.7439 10.207 12.539 10.6187 12.4139C11.0837 12.2727 11.596 12.2727 12.6206 12.2727H13.7455C14.6619 12.2727 15.1201 12.2727 15.4702 12.0944C15.7781 11.9375 16.0284 11.6872 16.1853 11.3793C16.3636 11.0292 16.3636 10.571 16.3636 9.65455V2.61818Z" fill="#949399"/>
</g>
</g>
</svg>
