<svg width="9" height="9" viewBox="0 0 9 9" fill="none" xmlns="http://www.w3.org/2000/svg">
<path d="M5.9884 2.8828L4.75984 0.454351C4.7045 0.344973 4.60188 0.290283 4.49927 0.290283V7.41124L6.96821 8.67749C7.18558 8.78897 7.43171 8.59414 7.38795 8.34522L6.92123 5.6906L8.90254 3.80655C9.0877 3.63048 8.99185 3.30855 8.7438 3.27338L5.9884 2.8828Z" fill="#C7C7D0"/>
<path d="M3.01013 2.8828L4.2387 0.454351C4.29403 0.344973 4.39665 0.290283 4.49927 0.290283V7.41124L2.03033 8.67749C1.81296 8.78897 1.56682 8.59414 1.61059 8.34522L2.07731 5.6906L0.0959969 3.80655C-0.0891671 3.63048 0.00668335 3.30855 0.25474 3.27338L3.01013 2.8828Z" fill="#FF675D"/>
</svg>
