<svg width="70" height="70" viewBox="0 0 70 70" fill="none" xmlns="http://www.w3.org/2000/svg">
<g clip-path="url(#clip0_24060_69579)">
<path d="M69.9976 70.001V0.000976562L-0.00244141 70.001H69.9976Z" fill="#C50B43"/>
<path d="M49.3414 42.7868C49.9231 42.8006 50.5612 42.8349 51.2535 42.8903C51.9598 42.9319 52.6674 43.029 53.3737 43.1813C54.0795 43.3337 54.7239 43.5624 55.3053 43.8669C55.8867 44.1577 56.3584 44.5531 56.7184 45.0514C57.0783 45.5501 57.2594 46.188 57.2594 46.9635C57.2593 47.7946 57.0509 48.5571 56.6354 49.2497C56.2199 49.942 55.6589 50.5449 54.9528 51.0573C54.2602 51.5698 53.4833 51.9715 52.6246 52.2624C51.7661 52.5393 50.8927 52.6783 50.0065 52.6784H49.986C49.95 52.6784 49.9189 52.6721 49.8922 52.6628L48.9869 52.7546V52.9059C48.9979 52.9298 49.0058 52.9578 49.0094 52.9899C49.0787 53.4746 49.2243 53.9669 49.4459 54.4655C49.6675 54.9639 49.959 55.4279 50.319 55.8571C50.6929 56.2724 51.1157 56.6126 51.5865 56.8756C52.0573 57.1385 52.5633 57.2702 53.1031 57.2702C53.5324 57.27 54.0174 57.1243 54.5573 56.8337C55.0973 56.5428 55.6383 56.1762 56.1783 55.7331C56.7324 55.276 57.2388 54.8048 57.6959 54.32C58.1668 53.8352 58.541 53.3982 58.818 53.0104C58.8541 52.9503 58.9006 52.9176 58.9576 52.9098C59.0767 52.8279 59.315 52.7732 59.5826 53.0407C59.9642 53.4222 59.8694 53.8993 59.774 54.0905C59.6825 54.2736 59.5013 55.0703 58.3073 56.1462C58.3055 56.1907 58.2836 56.2333 58.236 56.2731C57.7097 56.7717 57.1688 57.2287 56.6149 57.6442C56.0748 58.0735 55.4928 58.4134 54.8698 58.6628C54.2466 58.912 53.5323 59.0367 52.7291 59.0368C51.8429 59.0368 51.0458 58.8776 50.3395 58.5592C49.6471 58.2546 49.0443 57.8449 48.5319 57.3327C48.0333 56.8203 47.6172 56.266 47.2848 55.6706C46.9524 55.075 46.6953 54.4923 46.5153 53.9245C46.5151 53.9111 46.508 53.9042 46.4948 53.904V53.863C46.4948 53.8457 46.4943 53.8292 46.4967 53.8141C46.4688 53.517 46.4278 52.9861 46.4147 52.5329L46.0406 52.5524C45.3312 53.3875 44.576 54.1644 43.7731 54.8805C42.7481 55.7809 41.6248 56.5014 40.4059 57.0417C39.2009 57.5818 37.8708 57.8521 36.4166 57.8522C35.1703 57.8522 34.1448 57.6787 33.3414 57.3327C32.5521 56.9865 31.9694 56.5293 31.5953 55.9616C31.2213 55.3937 31.0348 54.7835 31.0348 54.1325C31.0348 53.4676 31.2004 52.8023 31.5328 52.1374C31.8791 51.4726 32.3713 50.8633 33.0084 50.3092C33.6594 49.7414 34.4286 49.2911 35.3151 48.9587C36.2154 48.6125 37.2273 48.4391 38.3492 48.4391C38.6816 48.4392 39.1047 48.4801 39.6168 48.5631C40.143 48.6463 40.6698 48.7853 41.1959 48.9792C41.722 49.1592 42.166 49.4021 42.526 49.7067C42.8996 50.0114 43.1009 50.3858 43.1285 50.8288C43.1423 51.0917 43.0727 51.3139 42.9205 51.4938C42.7685 51.6734 42.6088 51.763 42.443 51.7633C42.2353 51.7633 42.103 51.6318 42.0475 51.3688C42.0058 51.1889 41.7843 50.9809 41.3834 50.7458C40.9819 50.4965 40.4893 50.2813 39.9078 50.1012C39.3262 49.9074 38.7224 49.8103 38.0992 49.8102C37.3517 49.8103 36.659 49.9352 36.0221 50.1842C35.3989 50.4335 34.8581 50.7593 34.401 51.1608C33.9439 51.5625 33.5832 52.0061 33.3199 52.4909C33.0706 52.9619 32.9459 53.4263 32.9459 53.8835C32.946 54.5483 33.2372 55.1233 33.819 55.6081C34.4147 56.0926 35.3848 56.3356 36.7281 56.3356C37.5453 56.3355 38.3775 56.1204 39.2223 55.6911C40.067 55.2617 40.8917 54.7076 41.6949 54.029C42.5121 53.3364 43.2737 52.6015 43.9801 51.8258C44.6865 51.0501 45.311 50.3087 45.8512 49.6022C46.1004 49.2837 46.391 48.9026 46.7233 48.4596C47.0696 48.0164 47.4227 47.5519 47.7828 47.0671C48.1568 46.5823 48.5034 46.1253 48.8219 45.696C49.1543 45.2666 49.418 44.8991 49.6119 44.5944C49.6345 44.5569 49.663 44.5294 49.6979 44.5124L49.8414 44.2975C49.6181 44.2885 49.3891 44.2829 49.1549 44.2829C48.227 44.2829 47.2843 44.3448 46.3287 44.4694C45.3731 44.5941 44.4582 44.7816 43.5856 45.0309C42.713 45.2664 41.9228 45.5578 41.2164 45.904C40.5102 46.2502 39.9417 46.6378 39.5123 47.0671C39.3463 47.2331 39.1316 47.379 38.8688 47.5036C38.6198 47.6142 38.3975 47.6694 38.2037 47.6696C37.9129 47.6696 37.7673 47.5448 37.7672 47.2956C37.7673 47.1295 37.8226 46.9358 37.9332 46.7145C38.2241 46.0912 38.7506 45.5296 39.5123 45.0309C40.2742 44.5323 41.1823 44.1163 42.235 43.7839C43.3015 43.4376 44.4449 43.1815 45.6637 43.0153C46.8824 42.8353 48.1088 42.7591 49.3414 42.7868ZM51.2985 44.9294L51.2721 44.9596C51.2705 44.9958 51.259 45.0339 51.233 45.0729C50.5404 46.1256 49.8122 47.2403 49.0504 48.4176C48.3963 49.4352 47.6925 50.4358 46.943 51.4215H47.5905C47.6234 51.4006 47.6674 51.3893 47.7213 51.3893C48.6352 51.3477 49.522 51.223 50.3805 51.0153C51.253 50.8075 52.0366 50.5238 52.7291 50.1637C53.4352 49.8037 53.9896 49.3741 54.3912 48.8756C54.8066 48.3633 55.0151 47.7947 55.0153 47.1715C55.0153 46.493 54.7579 45.9455 54.2457 45.5299C53.7333 45.1006 53.0334 44.7884 52.1471 44.5944C52.0092 44.5616 51.8674 44.5312 51.7233 44.5036L51.2985 44.9294Z" fill="#DEBEAC"/>
</g>
<defs>
<clipPath id="clip0_24060_69579">
<rect width="70" height="70" fill="white"/>
</clipPath>
</defs>
</svg>
